HIERARCHY
ROOT Hips
{
  OFFSET -35.4901 99.2528 17.4586
  CHANNELS 6 Xposition Yposition Zposition Zrotation Xrotation Yrotation
  JOINT LeftUpLeg
  {
    OFFSET 8.64259 1.95398 -2.38835
    CHANNELS 3 Zrotation Xrotation Yrotation
    JOINT LeftLeg
    {
      OFFSET 43.7702 0 0
      CHANNELS 3 Zrotation Xrotation Yrotation
      JOINT LeftFoot
      {
        OFFSET 40.6238 0 0
        CHANNELS 3 Zrotation Xrotation Yrotation
        JOINT LeftToeBase
        {
          OFFSET 12.7242 0 0
          CHANNELS 3 Zrotation Xrotation Yrotation
          End Site
          {
            OFFSET 0 0 0
          }
        }
      }
    }
  }
  JOINT RightUpLeg
  {
    OFFSET -8.2249 1.95398 -2.59336
    CHANNELS 3 Zrotation Xrotation Yrotation
    JOINT RightLeg
    {
      OFFSET 43.5653 0 0
      CHANNELS 3 Zrotation Xrotation Yrotation
      JOINT RightFoot
      {
        OFFSET 40.6238 0 0
        CHANNELS 3 Zrotation Xrotation Yrotation
        JOINT RightToeBase
        {
          OFFSET 12.7242 0 0
          CHANNELS 3 Zrotation Xrotation Yrotation
          End Site
          {
            OFFSET 0 0 0
          }
        }
      }
    }
  }
  JOINT Spine
  {
    OFFSET 0.165834 0.87714 6.61349
    CHANNELS 3 Zrotation Xrotation Yrotation
    JOINT Spine1
    {
      OFFSET 7.38963 1.71661e-005 0
      CHANNELS 3 Zrotation Xrotation Yrotation
      JOINT Spine2
      {
        OFFSET 11.9445 1.14441e-005 0
        CHANNELS 3 Zrotation Xrotation Yrotation
        JOINT Spine3
        {
          OFFSET 14.7254 4.19617e-005 0
          CHANNELS 3 Zrotation Xrotation Yrotation
          JOINT Spine4
          {
            OFFSET 10.9679 0 0
            CHANNELS 3 Zrotation Xrotation Yrotation
            JOINT RightShoulder
            {
              OFFSET 2.46616 -1.6653 3.69651
              CHANNELS 3 Zrotation Xrotation Yrotation
              JOINT RightArm
              {
                OFFSET 13.0012 0 0
                CHANNELS 3 Zrotation Xrotation Yrotation
                JOINT RightForeArm
                {
                  OFFSET 28.7848 1.52588e-005 0
                  CHANNELS 3 Zrotation Xrotation Yrotation
                  JOINT RightHand
                  {
                    OFFSET 26.5688 1.52588e-005 0
                    CHANNELS 3 Zrotation Xrotation Yrotation
                    End Site
                    {
                      OFFSET 0 0 0
                    }
                  }
                }
              }
            }
            JOINT LeftShoulder
            {
              OFFSET 2.38034 -1.29275 -3.7523
              CHANNELS 3 Zrotation Xrotation Yrotation
              JOINT LeftArm
              {
                OFFSET 16.3182 6.10351e-005 0
                CHANNELS 3 Zrotation Xrotation Yrotation
                JOINT LeftForeArm
                {
                  OFFSET 27.0901 0 0
                  CHANNELS 3 Zrotation Xrotation Yrotation
                  JOINT LeftHand
                  {
                    OFFSET 24.5451 1.52588e-005 0
                    CHANNELS 3 Zrotation Xrotation Yrotation
                    End Site
                    {
                      OFFSET 0 0 0
                    }
                  }
                }
              }
            }
            JOINT Neck
            {
              OFFSET 5.0226 -0.0266342 0
              CHANNELS 3 Zrotation Xrotation Yrotation
              JOINT Head
              {
                OFFSET 6.69364 2.86102e-005 0
                CHANNELS 3 Zrotation Xrotation Yrotation
                End Site
                {
                  OFFSET 0 0 0
                }
              }
            }
          }
        }
      }
    }
  }
}
MOTION
Frames:	6
Frame Time:	0.0416667
-152.283 83.4029 -126.384 70.567 -33.9694 76.2405 -169.541 6.62707 94.3433 -43.891 14.8699 -5.83079 98.7804 15.9157 -4.24469 41.2226 4.31617 -10.7013 -153.585 63.0735 71.9879 -92.9472 5.96919 -3.59405 94.6466 -16.6717 -1.86214 14.406 -2.67426 6.78166 -3.2097 8.44183 -89.6322 10.0344 -6.22908 1.24667 -1.62242 -6.16817 1.5206 -24.2779 -6.31466 -0.690733 -4.26528 -6.31466 -0.690733 99.8286 -27.0989 -87.107 54.4868 -32.4597 61.3413 -54.3189 -33.0953 -58.7923 -36.569 0.402735 -13.3409 -84.5618 -13.5184 79.316 -12.1927 -17.4396 -70.6333 52.5429 -2.50702 -87.1276 22.4126 -1.16403 -9.23194 40.3927 3.02885 -18.2765 -14.4886 11.5269 4.47243 
-143.158 85.5635 -119.329 68.1798 -38.2347 78.7875 -171.674 -6.12899 90.4699 -25.0768 12.8797 -2.83505 80.033 9.19802 -0.368961 50.9813 2.33699 -9.97191 -159.513 67.8419 80.9185 -75.9655 0.561125 -4.4091 90.7205 -14.9966 -2.34766 12.7818 -1.64293 4.77675 -3.33385 8.60886 -90.4466 9.65935 -6.84817 -0.353552 -1.99345 -6.85706 -0.0503691 -24.6608 -6.42398 -2.40387 -4.64818 -6.424 -2.40387 99.1315 -22.3821 -89.1588 53.9208 -24.4097 65.9006 -52.3829 -26.2601 -59.3234 -37.2839 1.38309 -15.7307 -82.5731 -4.75637 81.7081 -19.2433 -22.289 -69.3248 51.7791 -2.94376 -89.2939 22.0967 -1.90825 -12.7352 50.3759 5.52656 -17.4319 -21.6802 14.4803 6.19141 
-133.149 88.0293 -111.764 67.104 -43.6831 81.5522 -175.192 -14.7417 91.8804 -15.3614 10.008 1.2562 56.7543 -0.709968 2.79209 46.6554 5.44737 -15.8303 -173.387 64.9388 96.7898 -56.8587 -9.51518 -2.56076 82.701 -11.223 -1.4623 17.6208 -1.18488 3.74904 -2.98877 8.85772 -91.2135 9.10616 -6.5036 -1.94458 -2.5495 -6.58286 -1.65535 -25.1766 -5.61809 -3.81392 -5.16401 -5.61807 -3.81393 93.5825 -18.7879 -103.359 54.4906 -5.91252 68.0255 -49.3018 -23.1842 -63.3414 -42.4123 1.99425 -15.7552 -82.5616 -3.62695 81.3517 -19.2353 -20.5284 -66.2196 50.7213 -3.72554 -89.3052 21.0221 -2.55831 -16.2487 55.4161 8.39307 -15.2697 -25.6273 16.034 7.5738 
-123.745 89.0318 -104.111 66.4231 -47.4792 81.4448 -175.478 -15.1921 89.9023 -22.8691 17.0717 1.1548 54.4722 -2.32832 3.82439 22.0807 0.0654597 0.797766 178.116 59.4709 104.777 -45.0312 -16.1595 0.744783 80.9871 -10.3135 -1.84026 21.4873 -1.6481 4.61931 -2.61344 8.82617 -91.6221 9.14523 -5.93789 -2.79118 -2.51457 -6.05491 -2.52648 -25.1036 -4.82492 -4.44843 -5.09094 -4.82491 -4.44843 89.3215 -14.7899 -116.058 55.876 5.98257 66.2417 -44.2531 -21.8228 -67.8684 -43.1555 2.08737 -15.175 -83.5236 -9.16391 80.4842 -16.901 -10.3013 -62.3458 53.669 -6.17213 -89.2943 18.1507 -1.99297 -14.8719 51.815 12.3588 -10.6713 -22.7656 16.7085 6.48747 
-115.452 88.3939 -97.1361 68.1841 -48.3601 80.1801 -172.567 -11.1168 88.1981 -40.7367 20.8543 -1.54143 56.35 -1.40528 2.83204 33.0512 2.7929 -5.55914 173.563 53.9732 105.466 -45.1091 -9.82005 2.62987 80.7889 -10.0905 -1.45763 22.7007 -1.59405 4.43849 -2.56064 8.88007 -91.6067 9.04035 -5.82475 -2.77514 -2.61993 -5.94119 -2.51546 -25.2061 -4.72184 -4.39895 -5.19345 -4.72184 -4.39896 87.4676 -24.726 -114.375 45.6922 4.43256 55.09 -40.3655 -19.5507 -71.0918 -44.0945 2.08284 -14.3027 -85.4256 -19.9365 79.5841 -12.0621 3.45655 -57.5064 61.1228 -8.57134 -87.8406 19.3362 -0.721123 -7.64586 52.2239 14.3916 -8.57753 -22.6546 17.3538 6.43699 
-107.315 88.3878 -89.8635 71.6838 -49.2507 81.6986 -167.885 -1.96619 91.9364 -64.0454 15.1978 -1.42033 52.5711 -2.88144 2.27487 32.0956 4.33997 -8.10358 170.855 46.9298 103.976 -49.8029 -8.37534 4.03027 78.8346 -8.75467 -1.19199 13.0467 -0.329202 2.38308 -2.35392 9.01557 -91.5949 8.77125 -5.40448 -2.79927 -2.89095 -5.5224 -2.55824 -25.4646 -4.31385 -4.29498 -5.45197 -4.31385 -4.295 88.1141 -32.4027 -109.479 35.9368 3.20705 37.2469 -41.4941 -19.4253 -74.0248 -44.3192 1.49535 -12.7281 -87.4591 -32.3222 78.7595 -8.00754 18.9185 -47.7705 65.4438 -10.4229 -85.1034 17.4608 -0.848926 -8.78387 50.2752 15.1949 -6.72262 -19.1941 17.1322 5.97483 
